{
    "asset" : {
        "generator" : "Khronos glTF Blender I/O v1.2.75",
        "version" : "2.0"
    },
    "extensionsUsed" : [
        "KHR_texture_transform"
    ],
    "extensionsRequired" : [
        "KHR_texture_transform"
    ],
    "scene" : 0,
    "scenes" : [
        {
            "name" : "Scene",
            "nodes" : [
                0,
                1,
                2,
                3,
                4,
                5,
                6,
                7,
                8
            ]
        }
    ],
    "nodes" : [
        {
            "mesh" : 0,
            "name" : "Blade",
            "scale" : [
                2.6710000038146973,
                0.6499999761581421,
                45.19599914550781
            ]
        },
        {
            "name" : "Light",
            "rotation" : [
                0.16907575726509094,
                0.7558803558349609,
                -0.27217137813568115,
                0.570947527885437
            ],
            "translation" : [
                4.076245307922363,
                5.903861999511719,
                -1.0054539442062378
            ]
        },
        {
            "name" : "Camera",
            "rotation" : [
                0.483536034822464,
                0.33687159419059753,
                -0.20870360732078552,
                0.7804827094078064
            ],
            "translation" : [
                7.358891487121582,
                4.958309173583984,
                6.925790786743164
            ]
        },
        {
            "mesh" : 1,
            "name" : "Hilt",
            "rotation" : [
                0.7071067690849304,
                0,
                0,
                0.7071067690849304
            ],
            "scale" : [
                2.200000047683716,
                1,
                1.2000000476837158
            ],
            "translation" : [
                0,
                0,
                -44.79999923706055
            ]
        },
        {
            "mesh" : 2,
            "name" : "Handle",
            "rotation" : [
                0.7071067690849304,
                0,
                0,
                0.7071067690849304
            ],
            "scale" : [
                1,
                5.300000190734863,
                0.6200000047683716
            ],
            "translation" : [
                0,
                0,
                -51
            ]
        },
        {
            "mesh" : 3,
            "name" : "Cylinder.002",
            "rotation" : [
                0.7071067690849304,
                0,
                0,
                0.7071067690849304
            ],
            "scale" : [
                0.718999981880188,
                3.128000020980835,
                0.718999981880188
            ],
            "translation" : [
                0,
                0,
                -59.58000183105469
            ]
        },
        {
            "mesh" : 4,
            "name" : "Cylinder.003",
            "scale" : [
                1,
                0.21695443987846375,
                1.2300000190734863
            ],
            "translation" : [
                0,
                0.013317303732037544,
                -63.779998779296875
            ]
        },
        {
            "mesh" : 5,
            "name" : "Torus",
            "rotation" : [
                0.7071067690849304,
                0,
                0,
                0.7071067690849304
            ],
            "scale" : [
                0.6800000071525574,
                0.6800000071525574,
                0.6800000071525574
            ],
            "translation" : [
                0,
                0,
                -56.29999923706055
            ]
        },
        {
            "mesh" : 6,
            "name" : "Torus.001",
            "rotation" : [
                0.7071067690849304,
                0,
                0,
                0.7071067690849304
            ],
            "scale" : [
                0.6100000143051147,
                0.6100000143051147,
                0.6100000143051147
            ],
            "translation" : [
                0,
                0,
                -62.67499923706055
            ]
        }
    ],
    "materials" : [
        {
            "doubleSided" : true,
            "emissiveFactor" : [
                1,
                1,
                1
            ],
            "emissiveTexture" : {
                "index" : 0,
                "texCoord" : 0
            },
            "name" : "Blade_Material",
            "normalTexture" : {
                "extensions" : {
                    "KHR_texture_transform" : {
                        "offset" : [
                            0,
                            -0.5
                        ],
                        "scale" : [
                            1.5,
                            1.5
                        ]
                    }
                },
                "index" : 1,
                "texCoord" : 0
            },
            "pbrMetallicRoughness" : {
                "baseColorFactor" : [
                    0.8000000715255737,
                    0.6986350417137146,
                    0.6834695339202881,
                    1
                ],
                "metallicFactor" : 1,
                "metallicRoughnessTexture" : {
                    "extensions" : {
                        "KHR_texture_transform" : {
                            "offset" : [
                                0,
                                -0.5
                            ],
                            "scale" : [
                                1.5,
                                1.5
                            ]
                        }
                    },
                    "index" : 2,
                    "texCoord" : 0
                }
            }
        },
        {
            "doubleSided" : true,
            "emissiveFactor" : [
                0,
                0,
                0
            ],
            "name" : "Guard_material",
            "normalTexture" : {
                "index" : 3,
                "texCoord" : 0
            },
            "pbrMetallicRoughness" : {
                "baseColorFactor" : [
                    0.8000000715255737,
                    0.7462442517280579,
                    0.4711972773075104,
                    1
                ],
                "metallicFactor" : 1,
                "metallicRoughnessTexture" : {
                    "index" : 4,
                    "texCoord" : 0
                }
            }
        },
        {
            "doubleSided" : true,
            "emissiveFactor" : [
                0,
                0,
                0
            ],
            "name" : "Handle",
            "normalTexture" : {
                "extensions" : {
                    "KHR_texture_transform" : {
                        "offset" : [
                            0,
                            -1
                        ],
                        "scale" : [
                            2,
                            2
                        ]
                    }
                },
                "index" : 5,
                "texCoord" : 0
            },
            "pbrMetallicRoughness" : {
                "baseColorFactor" : [
                    0.011248434893786907,
                    0.010251335799694061,
                    0.008336768485605717,
                    1
                ],
                "metallicFactor" : 0,
                "metallicRoughnessTexture" : {
                    "extensions" : {
                        "KHR_texture_transform" : {
                            "offset" : [
                                0,
                                -1
                            ],
                            "scale" : [
                                2,
                                2
                            ]
                        }
                    },
                    "index" : 6,
                    "texCoord" : 0
                }
            }
        },
        {
            "doubleSided" : true,
            "emissiveFactor" : [
                1,
                1,
                1
            ],
            "emissiveTexture" : {
                "index" : 7,
                "texCoord" : 0
            },
            "name" : "Pommel",
            "normalTexture" : {
                "extensions" : {
                    "KHR_texture_transform" : {
                        "offset" : [
                            0,
                            -1
                        ],
                        "scale" : [
                            2,
                            2
                        ]
                    }
                },
                "index" : 8,
                "texCoord" : 0
            },
            "pbrMetallicRoughness" : {
                "baseColorFactor" : [
                    0.8000000715255737,
                    0.38650596141815186,
                    0.5972477793693542,
                    1
                ],
                "metallicFactor" : 1,
                "metallicRoughnessTexture" : {
                    "extensions" : {
                        "KHR_texture_transform" : {
                            "offset" : [
                                0,
                                -1
                            ],
                            "scale" : [
                                2,
                                2
                            ]
                        }
                    },
                    "index" : 9,
                    "texCoord" : 0
                }
            }
        }
    ],
    "meshes" : [
        {
            "name" : "Cube",
            "primitives" : [
                {
                    "attributes" : {
                        "POSITION" : 0,
                        "NORMAL" : 1,
                        "TEXCOORD_0" : 2
                    },
                    "indices" : 3,
                    "material" : 0
                }
            ]
        },
        {
            "name" : "Cylinder.001",
            "primitives" : [
                {
                    "attributes" : {
                        "POSITION" : 4,
                        "NORMAL" : 5,
                        "TEXCOORD_0" : 6
                    },
                    "indices" : 7,
                    "material" : 1
                }
            ]
        },
        {
            "name" : "Cylinder",
            "primitives" : [
                {
                    "attributes" : {
                        "POSITION" : 8,
                        "NORMAL" : 9,
                        "TEXCOORD_0" : 10
                    },
                    "indices" : 11,
                    "material" : 2
                }
            ]
        },
        {
            "name" : "Cylinder.002",
            "primitives" : [
                {
                    "attributes" : {
                        "POSITION" : 12,
                        "NORMAL" : 13,
                        "TEXCOORD_0" : 14
                    },
                    "indices" : 15,
                    "material" : 0
                }
            ]
        },
        {
            "name" : "Cylinder.004",
            "primitives" : [
                {
                    "attributes" : {
                        "POSITION" : 16,
                        "NORMAL" : 17,
                        "TEXCOORD_0" : 18
                    },
                    "indices" : 19,
                    "material" : 3
                }
            ]
        },
        {
            "name" : "Torus",
            "primitives" : [
                {
                    "attributes" : {
                        "POSITION" : 20,
                        "NORMAL" : 21,
                        "TEXCOORD_0" : 22
                    },
                    "indices" : 23,
                    "material" : 3
                }
            ]
        },
        {
            "name" : "Torus.001",
            "primitives" : [
                {
                    "attributes" : {
                        "POSITION" : 24,
                        "NORMAL" : 25,
                        "TEXCOORD_0" : 26
                    },
                    "indices" : 23,
                    "material" : 3
                }
            ]
        }
    ],
    "textures" : [
        {
            "source" : 0
        },
        {
            "source" : 1
        },
        {
            "source" : 2
        },
        {
            "source" : 1
        },
        {
            "source" : 2
        },
        {
            "source" : 1
        },
        {
            "source" : 2
        },
        {
            "source" : 3
        },
        {
            "source" : 1
        },
        {
            "source" : 2
        }
    ],
    "images" : [
        {
            "mimeType" : "image/png",
            "name" : "rune_emission",
            "uri" : "rune_emission.png"
        },
        {
            "mimeType" : "image/jpeg",
            "name" : "scratches",
            "uri" : "scratches.jpg"
        },
        {
            "mimeType" : "image/png",
            "name" : "scratches",
            "uri" : "scratches-1.png"
        },
        {
            "mimeType" : "image/png",
            "name" : "rune_pommel",
            "uri" : "rune_pommel.png"
        }
    ],
    "accessors" : [
        {
            "bufferView" : 0,
            "componentType" : 5126,
            "count" : 536,
            "max" : [
                0.9651859402656555,
                0.816455602645874,
                0.9959344863891602
            ],
            "min" : [
                -0.9651859402656555,
                -0.7536375522613525,
                -1.0000001192092896
            ],
            "type" : "VEC3"
        },
        {
            "bufferView" : 1,
            "componentType" : 5126,
            "count" : 536,
            "type" : "VEC3"
        },
        {
            "bufferView" : 2,
            "componentType" : 5126,
            "count" : 536,
            "type" : "VEC2"
        },
        {
            "bufferView" : 3,
            "componentType" : 5123,
            "count" : 2856,
            "type" : "SCALAR"
        },
        {
            "bufferView" : 4,
            "componentType" : 5126,
            "count" : 1664,
            "max" : [
                2.4751572608947754,
                3.088721990585327,
                0.9839687347412109
            ],
            "min" : [
                -2.4751572608947754,
                -0.9999998807907104,
                -0.9839687347412109
            ],
            "type" : "VEC3"
        },
        {
            "bufferView" : 5,
            "componentType" : 5126,
            "count" : 1664,
            "type" : "VEC3"
        },
        {
            "bufferView" : 6,
            "componentType" : 5126,
            "count" : 1664,
            "type" : "VEC2"
        },
        {
            "bufferView" : 7,
            "componentType" : 5123,
            "count" : 7200,
            "type" : "SCALAR"
        },
        {
            "bufferView" : 8,
            "componentType" : 5126,
            "count" : 375,
            "max" : [
                1.1902426481246948,
                1,
                1.3032982349395752
            ],
            "min" : [
                -1.1902426481246948,
                -0.999999463558197,
                -1.3032981157302856
            ],
            "type" : "VEC3"
        },
        {
            "bufferView" : 9,
            "componentType" : 5126,
            "count" : 375,
            "type" : "VEC3"
        },
        {
            "bufferView" : 10,
            "componentType" : 5126,
            "count" : 375,
            "type" : "VEC2"
        },
        {
            "bufferView" : 11,
            "componentType" : 5123,
            "count" : 1656,
            "type" : "SCALAR"
        },
        {
            "bufferView" : 12,
            "componentType" : 5126,
            "count" : 26,
            "max" : [
                0.8145290017127991,
                1.0386594533920288,
                0.8145290613174438
            ],
            "min" : [
                -0.8145290613174438,
                -1,
                -0.8145290613174438
            ],
            "type" : "VEC3"
        },
        {
            "bufferView" : 13,
            "componentType" : 5126,
            "count" : 26,
            "type" : "VEC3"
        },
        {
            "bufferView" : 14,
            "componentType" : 5126,
            "count" : 26,
            "type" : "VEC2"
        },
        {
            "bufferView" : 15,
            "componentType" : 5123,
            "count" : 72,
            "type" : "SCALAR"
        },
        {
            "bufferView" : 16,
            "componentType" : 5126,
            "count" : 1275,
            "max" : [
                0.9553419947624207,
                1.9732781648635864,
                0.9553419947624207
            ],
            "min" : [
                -0.9553419351577759,
                -1.9732781648635864,
                -1.3979262113571167
            ],
            "type" : "VEC3"
        },
        {
            "bufferView" : 17,
            "componentType" : 5126,
            "count" : 1275,
            "type" : "VEC3"
        },
        {
            "bufferView" : 18,
            "componentType" : 5126,
            "count" : 1275,
            "type" : "VEC2"
        },
        {
            "bufferView" : 19,
            "componentType" : 5123,
            "count" : 5976,
            "type" : "SCALAR"
        },
        {
            "bufferView" : 20,
            "componentType" : 5126,
            "count" : 637,
            "max" : [
                0.9399999976158142,
                0.10000000149011612,
                0.9399999976158142
            ],
            "min" : [
                -0.9399999976158142,
                -0.10000000149011612,
                -0.9399999976158142
            ],
            "type" : "VEC3"
        },
        {
            "bufferView" : 21,
            "componentType" : 5126,
            "count" : 637,
            "type" : "VEC3"
        },
        {
            "bufferView" : 22,
            "componentType" : 5126,
            "count" : 637,
            "type" : "VEC2"
        },
        {
            "bufferView" : 23,
            "componentType" : 5123,
            "count" : 3456,
            "type" : "SCALAR"
        },
        {
            "bufferView" : 24,
            "componentType" : 5126,
            "count" : 637,
            "max" : [
                0.9399999976158142,
                0.10000000149011612,
                0.9399999976158142
            ],
            "min" : [
                -0.9399999976158142,
                -0.10000000149011612,
                -0.9399999976158142
            ],
            "type" : "VEC3"
        },
        {
            "bufferView" : 25,
            "componentType" : 5126,
            "count" : 637,
            "type" : "VEC3"
        },
        {
            "bufferView" : 26,
            "componentType" : 5126,
            "count" : 637,
            "type" : "VEC2"
        }
    ],
    "bufferViews" : [
        {
            "buffer" : 0,
            "byteLength" : 6432,
            "byteOffset" : 0
        },
        {
            "buffer" : 0,
            "byteLength" : 6432,
            "byteOffset" : 6432
        },
        {
            "buffer" : 0,
            "byteLength" : 4288,
            "byteOffset" : 12864
        },
        {
            "buffer" : 0,
            "byteLength" : 5712,
            "byteOffset" : 17152
        },
        {
            "buffer" : 0,
            "byteLength" : 19968,
            "byteOffset" : 22864
        },
        {
            "buffer" : 0,
            "byteLength" : 19968,
            "byteOffset" : 42832
        },
        {
            "buffer" : 0,
            "byteLength" : 13312,
            "byteOffset" : 62800
        },
        {
            "buffer" : 0,
            "byteLength" : 14400,
            "byteOffset" : 76112
        },
        {
            "buffer" : 0,
            "byteLength" : 4500,
            "byteOffset" : 90512
        },
        {
            "buffer" : 0,
            "byteLength" : 4500,
            "byteOffset" : 95012
        },
        {
            "buffer" : 0,
            "byteLength" : 3000,
            "byteOffset" : 99512
        },
        {
            "buffer" : 0,
            "byteLength" : 3312,
            "byteOffset" : 102512
        },
        {
            "buffer" : 0,
            "byteLength" : 312,
            "byteOffset" : 105824
        },
        {
            "buffer" : 0,
            "byteLength" : 312,
            "byteOffset" : 106136
        },
        {
            "buffer" : 0,
            "byteLength" : 208,
            "byteOffset" : 106448
        },
        {
            "buffer" : 0,
            "byteLength" : 144,
            "byteOffset" : 106656
        },
        {
            "buffer" : 0,
            "byteLength" : 15300,
            "byteOffset" : 106800
        },
        {
            "buffer" : 0,
            "byteLength" : 15300,
            "byteOffset" : 122100
        },
        {
            "buffer" : 0,
            "byteLength" : 10200,
            "byteOffset" : 137400
        },
        {
            "buffer" : 0,
            "byteLength" : 11952,
            "byteOffset" : 147600
        },
        {
            "buffer" : 0,
            "byteLength" : 7644,
            "byteOffset" : 159552
        },
        {
            "buffer" : 0,
            "byteLength" : 7644,
            "byteOffset" : 167196
        },
        {
            "buffer" : 0,
            "byteLength" : 5096,
            "byteOffset" : 174840
        },
        {
            "buffer" : 0,
            "byteLength" : 6912,
            "byteOffset" : 179936
        },
        {
            "buffer" : 0,
            "byteLength" : 7644,
            "byteOffset" : 186848
        },
        {
            "buffer" : 0,
            "byteLength" : 7644,
            "byteOffset" : 194492
        },
        {
            "buffer" : 0,
            "byteLength" : 5096,
            "byteOffset" : 202136
        }
    ],
    "buffers" : [
        {
            "byteLength" : 207232,
            "uri" : "sword.bin"
        }
    ]
}
